<svg width="20" height="12" viewBox="0 0 20 12" fill="none" xmlns="http://www.w3.org/2000/svg">
<g clip-path="url(#clip0)">
<path d="M11.37 11.2962C11.4707 11.1974 11.5557 11.088 11.6297 10.9743L19.3468 3.34763C20.0993 2.60328 20.0996 1.39693 19.3464 0.652222C18.5936 -0.0921308 17.3725 -0.0921308 16.6189 0.652222L9.97287 7.22081L3.29181 0.619045C2.53931 -0.125661 1.31788 -0.125661 0.564308 0.619045C0.188238 0.991398 2.47335e-05 1.47881 2.47122e-05 1.96622C2.46909e-05 2.45363 0.188238 2.9421 0.565023 3.3134L8.31609 10.9743C8.39002 11.088 8.47466 11.197 8.57573 11.2962C8.96144 11.6774 9.46787 11.8602 9.97287 11.8518C10.4782 11.8606 10.9854 11.6774 11.37 11.2962Z" fill="white"/>
</g>
<defs>
<clipPath id="clip0">
<rect width="12" height="20" fill="white" transform="translate(20) rotate(90)"/>
</clipPath>
</defs>
</svg>
