<svg width="12" height="20" viewBox="0 0 12 20" fill="none" xmlns="http://www.w3.org/2000/svg">
<g clip-path="url(#clip0)">
<path d="M11.2963 8.63002C11.1974 8.5293 11.088 8.4443 10.9744 8.37037L3.34766 0.653239C2.60331 -0.0992599 1.39696 -0.099617 0.652253 0.653597C-0.0921002 1.40645 -0.0921002 2.62752 0.652253 3.38109L7.22084 10.0272L0.619076 16.7082C-0.12563 17.4607 -0.12563 18.6821 0.619076 19.4357C0.991429 19.8118 1.47884 20 1.96625 20C2.45366 20 2.94214 19.8118 3.31343 19.435L10.9744 11.6839C11.088 11.61 11.1971 11.5254 11.2963 11.4243C11.6774 11.0386 11.8603 10.5322 11.8518 10.0272C11.8606 9.5218 11.6774 9.01466 11.2963 8.63002Z" fill="white"/>
</g>
<defs>
<clipPath id="clip0">
<rect width="12" height="20" fill="white"/>
</clipPath>
</defs>
</svg>
