<svg width="32" height="32" viewBox="0 0 32 32" fill="none" xmlns="http://www.w3.org/2000/svg">
<path d="M29.3284 0.984375H2.63892C1.72504 0.984924 0.984192 1.72614 0.984375 2.64038V29.3298C0.984924 30.2437 1.72614 30.9846 2.64038 30.9844H17.0098V19.3828H13.1133V14.8418H17.0098V11.4999C17.0098 7.62451 19.3757 5.51514 22.8327 5.51514C24.4885 5.51514 25.9114 5.63855 26.3262 5.69366V9.74414H23.9423C22.0615 9.74414 21.6973 10.6379 21.6973 11.9496V14.8418H26.1943L25.6084 19.3828H21.6973V30.9844H29.3284C30.2428 30.9846 30.9842 30.2435 30.9844 29.3291C30.9844 29.3289 30.9844 29.3287 30.9844 29.3284V2.63892C30.984 1.72504 30.2426 0.984192 29.3284 0.984375Z" fill="url(#paint0_linear)"/>
<defs>
<linearGradient id="paint0_linear" x1="30.9375" y1="10.6174" x2="2.58465" y2="20.942" gradientUnits="userSpaceOnUse">
<stop stop-color="#0099FF"/>
<stop offset="1" stop-color="#8ED2FF"/>
</linearGradient>
</defs>
</svg>
