<svg width="33" height="33" viewBox="0 0 33 33" fill="none" xmlns="http://www.w3.org/2000/svg">
<g clip-path="url(#clip0)">
<path d="M26.125 9.10251C24.8971 9.10251 23.8975 8.10288 23.8975 6.87501C23.8975 5.64713 24.8971 4.64751 26.125 4.64751C27.3528 4.64751 28.3525 5.64713 28.3525 6.87501C28.3525 8.10288 27.3528 9.10251 26.125 9.10251Z" fill="black"/>
<path d="M7.90625 15.8125H1.03125C0.462 15.8125 0 15.3505 0 14.7813C0 14.212 0.462 13.75 1.03125 13.75H6.875V1.03125C6.875 0.462 7.337 0 7.90625 0C8.4755 0 8.9375 0.462 8.9375 1.03125V14.7813C8.9375 15.3505 8.4755 15.8125 7.90625 15.8125Z" fill="white"/>
<path d="M31.9688 21.3125H11.3438C10.7745 21.3125 10.3125 20.8505 10.3125 20.2812V1.03125C10.3125 0.462 10.7745 0 11.3438 0C11.913 0 12.375 0.462 12.375 1.03125V19.25H31.9688C32.538 19.25 33 19.712 33 20.2812C33 20.8505 32.538 21.3125 31.9688 21.3125Z" fill="white"/>
<path d="M7.90625 33C7.337 33 6.875 32.538 6.875 31.9688V19.25H1.03125C0.462 19.25 0 18.788 0 18.2188C0 17.6495 0.462 17.1875 1.03125 17.1875H7.90625C8.4755 17.1875 8.9375 17.6495 8.9375 18.2188V31.9688C8.9375 32.538 8.4755 33 7.90625 33Z" fill="white"/>
<path d="M11.3438 33C10.7745 33 10.3125 32.538 10.3125 31.9688V23.7188C10.3125 23.1495 10.7745 22.6875 11.3438 22.6875H31.9688C32.538 22.6875 33 23.1495 33 23.7188C33 24.288 32.538 24.75 31.9688 24.75H12.375V31.9688C12.375 32.538 11.913 33 11.3438 33Z" fill="white"/>
<path d="M7.90625 7.5625H3.78125C3.212 7.5625 2.75 7.1005 2.75 6.53125C2.75 5.962 3.212 5.5 3.78125 5.5H7.90625C8.4755 5.5 8.9375 5.962 8.9375 6.53125C8.9375 7.1005 8.4755 7.5625 7.90625 7.5625Z" fill="white"/>
<path d="M22.3437 30.25H18.9062C18.337 30.25 17.875 29.788 17.875 29.2187V23.7187C17.875 23.1495 18.337 22.6875 18.9062 22.6875C19.4755 22.6875 19.9375 23.1495 19.9375 23.7187V28.1875H22.3437C22.913 28.1875 23.375 28.6495 23.375 29.2187C23.375 29.788 22.913 30.25 22.3437 30.25Z" fill="white"/>
<path d="M18.5625 13.75H11.3438C10.7745 13.75 10.3125 13.288 10.3125 12.7188C10.3125 12.1495 10.7745 11.6875 11.3438 11.6875H18.5625C19.1318 11.6875 19.5938 12.1495 19.5938 12.7188C19.5938 13.288 19.1318 13.75 18.5625 13.75Z" fill="white"/>
<path d="M3.78125 23.375C3.212 23.375 2.75 22.913 2.75 22.3437V18.2187C2.75 17.6495 3.212 17.1875 3.78125 17.1875C4.3505 17.1875 4.8125 17.6495 4.8125 18.2187V22.3437C4.8125 22.913 4.3505 23.375 3.78125 23.375Z" fill="white"/>
<path d="M26.125 17.875C25.8857 17.875 25.6479 17.7925 25.4554 17.6275C25.201 17.4102 19.25 12.2581 19.25 6.96025C19.25 3.12262 22.3341 0 26.125 0C29.9159 0 33 3.12262 33 6.96025C33 12.2581 27.049 17.4102 26.7946 17.6275C26.6021 17.7925 26.3642 17.875 26.125 17.875ZM26.125 2.0625C23.4712 2.0625 21.3125 4.25975 21.3125 6.96025C21.3125 10.373 24.662 14.0099 26.125 15.4357C27.588 14.0099 30.9375 10.373 30.9375 6.96025C30.9375 4.25975 28.7787 2.0625 26.125 2.0625Z" fill="white"/>
<path d="M26.125 9.625C24.6084 9.625 23.375 8.39163 23.375 6.875C23.375 5.35838 24.6084 4.125 26.125 4.125C27.6416 4.125 28.875 5.35838 28.875 6.875C28.875 8.39163 27.6416 9.625 26.125 9.625ZM26.125 6.1875C25.7455 6.1875 25.4375 6.49688 25.4375 6.875C25.4375 7.25313 25.7455 7.5625 26.125 7.5625C26.5045 7.5625 26.8125 7.25313 26.8125 6.875C26.8125 6.49688 26.5045 6.1875 26.125 6.1875Z" fill="white"/>
</g>
<defs>
<clipPath id="clip0">
<rect width="33" height="33" fill="white"/>
</clipPath>
</defs>
</svg>
