<svg width="36" height="36" viewBox="0 0 36 36" fill="none" xmlns="http://www.w3.org/2000/svg">
<g clip-path="url(#clip0)">
<path d="M25.8731 36C24.711 36 23.5588 35.7946 22.432 35.3852C17.4683 33.5821 12.8609 30.6452 9.10781 26.8922C5.35468 23.1391 2.41785 18.5316 0.614757 13.5679C0.035335 11.9727 -0.135658 10.3261 0.106699 8.67354C0.333729 7.1256 0.933329 5.62287 1.84075 4.32777C2.75217 3.02697 3.96726 1.94505 5.35461 1.19899C6.83406 0.403437 8.44886 0 10.1543 0C10.6847 0 11.1431 0.370602 11.2543 0.889206L13.02 9.12942C13.1 9.50255 12.9853 9.89081 12.7155 10.1607L9.69834 13.1778C12.5446 18.8367 17.1631 23.4552 22.8221 26.3015L25.8392 23.2843C26.109 23.0145 26.4973 22.9 26.8704 22.9798L35.1106 24.7455C35.6293 24.8567 35.9998 25.3151 35.9998 25.8455C35.9998 27.551 35.5964 29.1658 34.8008 30.6453C34.0547 32.0326 32.9728 33.2477 31.672 34.1592C30.377 35.0666 28.8742 35.6662 27.3262 35.8932C26.8412 35.9644 26.3562 35.9999 25.8731 36ZM9.25546 2.29912C7.0059 2.54746 5.00925 3.72655 3.68335 5.61893C2.19236 7.74685 1.84468 10.3641 2.72946 12.7998C6.196 22.3426 13.6573 29.804 23.2002 33.2705C25.6358 34.1553 28.253 33.8077 30.381 32.3166C32.2734 30.9907 33.4525 28.9941 33.7008 26.7445L26.9975 25.3081L23.8465 28.4591C23.5112 28.7944 23.0017 28.8835 22.5727 28.6818C15.8799 25.5376 10.4624 20.1201 7.31815 13.4273C7.11657 12.9982 7.20558 12.4887 7.54089 12.1535L10.6919 9.00251L9.25546 2.29912Z" fill="white"/>
</g>
<defs>
<clipPath id="clip0">
<rect width="36" height="36" fill="white"/>
</clipPath>
</defs>
</svg>
